<svg width="38" height="20" viewBox="0 0 38 20" fill="none" xmlns="http://www.w3.org/2000/svg">
<path d="M20.0833 6.66667C18.7167 2.78333 15.0167 0 10.6667 0C5.14999 0 0.666656 4.48333 0.666656 10C0.666656 15.5167 5.14999 20 10.6667 20C15.0167 20 18.7167 17.2167 20.0833 13.3333H27.3333V20H34V13.3333H37.3333V6.66667H20.0833ZM10.6667 13.3333C8.83332 13.3333 7.33332 11.8333 7.33332 10C7.33332 8.16667 8.83332 6.66667 10.6667 6.66667C12.5 6.66667 14 8.16667 14 10C14 11.8333 12.5 13.3333 10.6667 13.3333Z" fill="black" fill-opacity="0.39"/>
</svg>
